<svg xmlns="http://www.w3.org/2000/svg" width="81.456" height="20.499" viewBox="0 0 81.456 20.499">
  <g id="组_4930" data-name="组 4930" transform="translate(-272 -267.001)">
    <g id="组_4820" data-name="组 4820" transform="translate(296.456 267.5)">
      <text id="ORTFOLIO" transform="translate(-3 17)" fill="#ff9a00" font-size="10" font-family="Futura-Medium, Futura" font-weight="500" letter-spacing="0.139em"><tspan x="0" y="0">ORTFOLIO</tspan></text>
    </g>
    <g id="组_4929" data-name="组 4929" transform="translate(60.416 -56.27)">
      <path id="减去_1" data-name="减去 1" d="M-7969.415-2808.73h-12.056v-6.5h4.43a5.7,5.7,0,0,0,4.508-1.9,5.859,5.859,0,0,0,1.5-3.888,5.988,5.988,0,0,0-.593-2.742,4.63,4.63,0,0,0-1.477-1.846,5.944,5.944,0,0,0-2.09-1.123h5.776a2,2,0,0,1,2,2v14A2,2,0,0,1-7969.415-2808.73Zm-14.97,0h-.03a2,2,0,0,1-2-2v-14a2,2,0,0,1,2-2h.03v18Zm7.226-9.256h-4.312v-6.209h4.312a3.639,3.639,0,0,1,1.976.541,2.434,2.434,0,0,1,.924.936,3.757,3.757,0,0,1,.317,1.621,3.263,3.263,0,0,1-.78,2.111A3.08,3.08,0,0,1-7977.16-2817.986Z" transform="translate(8198 3150)" fill="#ff9d00"/>
    </g>
  </g>
</svg>
